<?xml version="1.0" encoding="UTF-8" standalone="no"?>
<!DOCTYPE svg PUBLIC "-//W3C//DTD SVG 1.1//EN"
 "http://www.w3.org/Graphics/SVG/1.1/DTD/svg11.dtd">
<!-- Generated by graphviz version 2.43.0 (0)
 -->
<!-- Title: %3 Pages: 1 -->
<svg width="1033pt" height="476pt"
 viewBox="0.00 0.00 1032.50 476.00" xmlns="http://www.w3.org/2000/svg" xmlns:xlink="http://www.w3.org/1999/xlink">
<g id="graph0" class="graph" transform="scale(1 1) rotate(0) translate(4 472)">
<title>%3</title>
<polygon fill="white" stroke="transparent" points="-4,4 -4,-472 1028.5,-472 1028.5,4 -4,4"/>
<!-- [root] aws_cloudtrail.management&#45;trail (expand) -->
<g id="node1" class="node">
<title>[root] aws_cloudtrail.management&#45;trail (expand)</title>
<polygon fill="none" stroke="black" points="776,-324 525,-324 525,-288 776,-288 776,-324"/>
<text text-anchor="middle" x="650.5" y="-302.3" font-family="Times,serif" font-size="14.00">aws_cloudtrail.management&#45;trail</text>
</g>
<!-- [root] aws_s3_bucket_acl.management&#45;bucket&#45;acl (expand) -->
<g id="node3" class="node">
<title>[root] aws_s3_bucket_acl.management&#45;bucket&#45;acl (expand)</title>
<polygon fill="none" stroke="black" points="631.5,-252 307.5,-252 307.5,-216 631.5,-216 631.5,-252"/>
<text text-anchor="middle" x="469.5" y="-230.3" font-family="Times,serif" font-size="14.00">aws_s3_bucket_acl.management&#45;bucket&#45;acl</text>
</g>
<!-- [root] aws_cloudtrail.management&#45;trail (expand)&#45;&gt;[root] aws_s3_bucket_acl.management&#45;bucket&#45;acl (expand) -->
<g id="edge1" class="edge">
<title>[root] aws_cloudtrail.management&#45;trail (expand)&#45;&gt;[root] aws_s3_bucket_acl.management&#45;bucket&#45;acl (expand)</title>
<path fill="none" stroke="black" d="M606.22,-287.88C581.15,-278.18 549.6,-265.98 523.13,-255.74"/>
<polygon fill="black" stroke="black" points="524.22,-252.41 513.63,-252.07 521.7,-258.94 524.22,-252.41"/>
</g>
<!-- [root] aws_s3_bucket_policy.management&#45;bucket&#45;policy (expand) -->
<g id="node5" class="node">
<title>[root] aws_s3_bucket_policy.management&#45;bucket&#45;policy (expand)</title>
<polygon fill="none" stroke="black" points="1015,-252 650,-252 650,-216 1015,-216 1015,-252"/>
<text text-anchor="middle" x="832.5" y="-230.3" font-family="Times,serif" font-size="14.00">aws_s3_bucket_policy.management&#45;bucket&#45;policy</text>
</g>
<!-- [root] aws_cloudtrail.management&#45;trail (expand)&#45;&gt;[root] aws_s3_bucket_policy.management&#45;bucket&#45;policy (expand) -->
<g id="edge2" class="edge">
<title>[root] aws_cloudtrail.management&#45;trail (expand)&#45;&gt;[root] aws_s3_bucket_policy.management&#45;bucket&#45;policy (expand)</title>
<path fill="none" stroke="black" d="M695.02,-287.88C720.23,-278.18 751.95,-265.98 778.57,-255.74"/>
<polygon fill="black" stroke="black" points="780.05,-258.92 788.12,-252.07 777.53,-252.39 780.05,-258.92"/>
</g>
<!-- [root] aws_s3_bucket.management&#45;bucket (expand) -->
<g id="node2" class="node">
<title>[root] aws_s3_bucket.management&#45;bucket (expand)</title>
<polygon fill="none" stroke="black" points="424.5,-108 152.5,-108 152.5,-72 424.5,-72 424.5,-108"/>
<text text-anchor="middle" x="288.5" y="-86.3" font-family="Times,serif" font-size="14.00">aws_s3_bucket.management&#45;bucket</text>
</g>
<!-- [root] provider[&quot;registry.terraform.io/hashicorp/aws&quot;] -->
<g id="node9" class="node">
<title>[root] provider[&quot;registry.terraform.io/hashicorp/aws&quot;]</title>
<polygon fill="none" stroke="black" points="635.5,-36 310.24,-18 635.5,0 960.76,-18 635.5,-36"/>
<text text-anchor="middle" x="635.5" y="-14.3" font-family="Times,serif" font-size="14.00">provider[&quot;registry.terraform.io/hashicorp/aws&quot;]</text>
</g>
<!-- [root] aws_s3_bucket.management&#45;bucket (expand)&#45;&gt;[root] provider[&quot;registry.terraform.io/hashicorp/aws&quot;] -->
<g id="edge3" class="edge">
<title>[root] aws_s3_bucket.management&#45;bucket (expand)&#45;&gt;[root] provider[&quot;registry.terraform.io/hashicorp/aws&quot;]</title>
<path fill="none" stroke="black" d="M372.94,-71.97C429.79,-60.5 504.13,-45.5 559.2,-34.39"/>
<polygon fill="black" stroke="black" points="560.13,-37.77 569.24,-32.37 558.75,-30.91 560.13,-37.77"/>
</g>
<!-- [root] var.namespace -->
<g id="node10" class="node">
<title>[root] var.namespace</title>
<polygon fill="none" stroke="black" points="286.5,-36 170.5,-36 170.5,0 292.5,0 292.5,-30 286.5,-36"/>
<polyline fill="none" stroke="black" points="286.5,-36 286.5,-30 "/>
<polyline fill="none" stroke="black" points="292.5,-30 286.5,-30 "/>
<text text-anchor="middle" x="231.5" y="-14.3" font-family="Times,serif" font-size="14.00">var.namespace</text>
</g>
<!-- [root] aws_s3_bucket.management&#45;bucket (expand)&#45;&gt;[root] var.namespace -->
<g id="edge4" class="edge">
<title>[root] aws_s3_bucket.management&#45;bucket (expand)&#45;&gt;[root] var.namespace</title>
<path fill="none" stroke="black" d="M274.41,-71.7C267.58,-63.3 259.24,-53.07 251.74,-43.86"/>
<polygon fill="black" stroke="black" points="254.46,-41.65 245.43,-36.1 249.03,-46.07 254.46,-41.65"/>
</g>
<!-- [root] aws_s3_bucket_ownership_controls.management&#45;bucket&#45;ownership&#45;controls (expand) -->
<g id="node4" class="node">
<title>[root] aws_s3_bucket_ownership_controls.management&#45;bucket&#45;ownership&#45;controls (expand)</title>
<polygon fill="none" stroke="black" points="559,-180 0,-180 0,-144 559,-144 559,-180"/>
<text text-anchor="middle" x="279.5" y="-158.3" font-family="Times,serif" font-size="14.00">aws_s3_bucket_ownership_controls.management&#45;bucket&#45;ownership&#45;controls</text>
</g>
<!-- [root] aws_s3_bucket_acl.management&#45;bucket&#45;acl (expand)&#45;&gt;[root] aws_s3_bucket_ownership_controls.management&#45;bucket&#45;ownership&#45;controls (expand) -->
<g id="edge5" class="edge">
<title>[root] aws_s3_bucket_acl.management&#45;bucket&#45;acl (expand)&#45;&gt;[root] aws_s3_bucket_ownership_controls.management&#45;bucket&#45;ownership&#45;controls (expand)</title>
<path fill="none" stroke="black" d="M423.02,-215.88C396.58,-206.14 363.3,-193.87 335.44,-183.61"/>
<polygon fill="black" stroke="black" points="336.42,-180.24 325.83,-180.07 334,-186.81 336.42,-180.24"/>
</g>
<!-- [root] data.aws_canonical_user_id.current (expand) -->
<g id="node7" class="node">
<title>[root] data.aws_canonical_user_id.current (expand)</title>
<polygon fill="none" stroke="black" points="717.5,-108 447.5,-108 447.5,-72 717.5,-72 717.5,-108"/>
<text text-anchor="middle" x="582.5" y="-86.3" font-family="Times,serif" font-size="14.00">data.aws_canonical_user_id.current</text>
</g>
<!-- [root] aws_s3_bucket_acl.management&#45;bucket&#45;acl (expand)&#45;&gt;[root] data.aws_canonical_user_id.current (expand) -->
<g id="edge6" class="edge">
<title>[root] aws_s3_bucket_acl.management&#45;bucket&#45;acl (expand)&#45;&gt;[root] data.aws_canonical_user_id.current (expand)</title>
<path fill="none" stroke="black" d="M520.76,-215.96C538.13,-207.72 556.02,-196.05 567.5,-180 580.29,-162.13 583.57,-137.12 583.92,-118.17"/>
<polygon fill="black" stroke="black" points="587.42,-118.05 583.84,-108.07 580.42,-118.1 587.42,-118.05"/>
</g>
<!-- [root] aws_s3_bucket_ownership_controls.management&#45;bucket&#45;ownership&#45;controls (expand)&#45;&gt;[root] aws_s3_bucket.management&#45;bucket (expand) -->
<g id="edge7" class="edge">
<title>[root] aws_s3_bucket_ownership_controls.management&#45;bucket&#45;ownership&#45;controls (expand)&#45;&gt;[root] aws_s3_bucket.management&#45;bucket (expand)</title>
<path fill="none" stroke="black" d="M281.72,-143.7C282.72,-135.98 283.91,-126.71 285.01,-118.11"/>
<polygon fill="black" stroke="black" points="288.5,-118.47 286.3,-108.1 281.55,-117.58 288.5,-118.47"/>
</g>
<!-- [root] data.aws_iam_policy_document.cloudtrail_s3_policy (expand) -->
<g id="node8" class="node">
<title>[root] data.aws_iam_policy_document.cloudtrail_s3_policy (expand)</title>
<polygon fill="none" stroke="black" points="1024.5,-180 640.5,-180 640.5,-144 1024.5,-144 1024.5,-180"/>
<text text-anchor="middle" x="832.5" y="-158.3" font-family="Times,serif" font-size="14.00">data.aws_iam_policy_document.cloudtrail_s3_policy</text>
</g>
<!-- [root] aws_s3_bucket_policy.management&#45;bucket&#45;policy (expand)&#45;&gt;[root] data.aws_iam_policy_document.cloudtrail_s3_policy (expand) -->
<g id="edge8" class="edge">
<title>[root] aws_s3_bucket_policy.management&#45;bucket&#45;policy (expand)&#45;&gt;[root] data.aws_iam_policy_document.cloudtrail_s3_policy (expand)</title>
<path fill="none" stroke="black" d="M832.5,-215.7C832.5,-207.98 832.5,-198.71 832.5,-190.11"/>
<polygon fill="black" stroke="black" points="836,-190.1 832.5,-180.1 829,-190.1 836,-190.1"/>
</g>
<!-- [root] data.aws_caller_identity.current (expand) -->
<g id="node6" class="node">
<title>[root] data.aws_caller_identity.current (expand)</title>
<polygon fill="none" stroke="black" points="981,-108 736,-108 736,-72 981,-72 981,-108"/>
<text text-anchor="middle" x="858.5" y="-86.3" font-family="Times,serif" font-size="14.00">data.aws_caller_identity.current</text>
</g>
<!-- [root] data.aws_caller_identity.current (expand)&#45;&gt;[root] provider[&quot;registry.terraform.io/hashicorp/aws&quot;] -->
<g id="edge9" class="edge">
<title>[root] data.aws_caller_identity.current (expand)&#45;&gt;[root] provider[&quot;registry.terraform.io/hashicorp/aws&quot;]</title>
<path fill="none" stroke="black" d="M804.23,-71.97C770.09,-61.25 726.12,-47.44 691.62,-36.62"/>
<polygon fill="black" stroke="black" points="692.29,-33.16 681.7,-33.5 690.2,-39.84 692.29,-33.16"/>
</g>
<!-- [root] data.aws_canonical_user_id.current (expand)&#45;&gt;[root] provider[&quot;registry.terraform.io/hashicorp/aws&quot;] -->
<g id="edge10" class="edge">
<title>[root] data.aws_canonical_user_id.current (expand)&#45;&gt;[root] provider[&quot;registry.terraform.io/hashicorp/aws&quot;]</title>
<path fill="none" stroke="black" d="M595.6,-71.7C601.98,-63.27 609.78,-52.97 616.77,-43.73"/>
<polygon fill="black" stroke="black" points="619.67,-45.71 622.91,-35.62 614.09,-41.48 619.67,-45.71"/>
</g>
<!-- [root] data.aws_iam_policy_document.cloudtrail_s3_policy (expand)&#45;&gt;[root] aws_s3_bucket.management&#45;bucket (expand) -->
<g id="edge11" class="edge">
<title>[root] data.aws_iam_policy_document.cloudtrail_s3_policy (expand)&#45;&gt;[root] aws_s3_bucket.management&#45;bucket (expand)</title>
<path fill="none" stroke="black" d="M700.12,-143.97C618.67,-133.49 514.31,-120.06 431.05,-109.34"/>
<polygon fill="black" stroke="black" points="431.37,-105.86 421,-108.05 430.47,-112.8 431.37,-105.86"/>
</g>
<!-- [root] data.aws_iam_policy_document.cloudtrail_s3_policy (expand)&#45;&gt;[root] data.aws_caller_identity.current (expand) -->
<g id="edge12" class="edge">
<title>[root] data.aws_iam_policy_document.cloudtrail_s3_policy (expand)&#45;&gt;[root] data.aws_caller_identity.current (expand)</title>
<path fill="none" stroke="black" d="M838.93,-143.7C841.86,-135.81 845.39,-126.3 848.64,-117.55"/>
<polygon fill="black" stroke="black" points="851.95,-118.7 852.15,-108.1 845.38,-116.26 851.95,-118.7"/>
</g>
<!-- [root] provider[&quot;registry.terraform.io/hashicorp/aws&quot;] (close) -->
<g id="node11" class="node">
<title>[root] provider[&quot;registry.terraform.io/hashicorp/aws&quot;] (close)</title>
<ellipse fill="none" stroke="black" cx="650.5" cy="-378" rx="291.65" ry="18"/>
<text text-anchor="middle" x="650.5" y="-374.3" font-family="Times,serif" font-size="14.00">[root] provider[&quot;registry.terraform.io/hashicorp/aws&quot;] (close)</text>
</g>
<!-- [root] provider[&quot;registry.terraform.io/hashicorp/aws&quot;] (close)&#45;&gt;[root] aws_cloudtrail.management&#45;trail (expand) -->
<g id="edge13" class="edge">
<title>[root] provider[&quot;registry.terraform.io/hashicorp/aws&quot;] (close)&#45;&gt;[root] aws_cloudtrail.management&#45;trail (expand)</title>
<path fill="none" stroke="black" d="M650.5,-359.7C650.5,-351.98 650.5,-342.71 650.5,-334.11"/>
<polygon fill="black" stroke="black" points="654,-334.1 650.5,-324.1 647,-334.1 654,-334.1"/>
</g>
<!-- [root] root -->
<g id="node12" class="node">
<title>[root] root</title>
<ellipse fill="none" stroke="black" cx="650.5" cy="-450" rx="58.49" ry="18"/>
<text text-anchor="middle" x="650.5" y="-446.3" font-family="Times,serif" font-size="14.00">[root] root</text>
</g>
<!-- [root] root&#45;&gt;[root] provider[&quot;registry.terraform.io/hashicorp/aws&quot;] (close) -->
<g id="edge14" class="edge">
<title>[root] root&#45;&gt;[root] provider[&quot;registry.terraform.io/hashicorp/aws&quot;] (close)</title>
<path fill="none" stroke="black" d="M650.5,-431.7C650.5,-423.98 650.5,-414.71 650.5,-406.11"/>
<polygon fill="black" stroke="black" points="654,-406.1 650.5,-396.1 647,-406.1 654,-406.1"/>
</g>
</g>
</svg>
