<?xml version="1.0" encoding="UTF-8" standalone="no"?>
<!DOCTYPE svg PUBLIC "-//W3C//DTD SVG 1.1//EN"
 "http://www.w3.org/Graphics/SVG/1.1/DTD/svg11.dtd">
<!-- Generated by graphviz version 2.43.0 (0)
 -->
<!-- Title: %3 Pages: 1 -->
<svg width="878pt" height="404pt"
 viewBox="0.00 0.00 877.88 404.00" xmlns="http://www.w3.org/2000/svg" xmlns:xlink="http://www.w3.org/1999/xlink">
<g id="graph0" class="graph" transform="scale(1 1) rotate(0) translate(4 400)">
<title>%3</title>
<polygon fill="white" stroke="transparent" points="-4,4 -4,-400 873.88,-400 873.88,4 -4,4"/>
<!-- [root] aws_cloudtrail.management&#45;trail (expand) -->
<g id="node1" class="node">
<title>[root] aws_cloudtrail.management&#45;trail (expand)</title>
<polygon fill="none" stroke="black" points="449.88,-252 198.88,-252 198.88,-216 449.88,-216 449.88,-252"/>
<text text-anchor="middle" x="324.38" y="-230.3" font-family="Times,serif" font-size="14.00">aws_cloudtrail.management&#45;trail</text>
</g>
<!-- [root] aws_s3_bucket_acl.management&#45;bucket&#45;acl (expand) -->
<g id="node3" class="node">
<title>[root] aws_s3_bucket_acl.management&#45;bucket&#45;acl (expand)</title>
<polygon fill="none" stroke="black" points="440.38,-180 116.38,-180 116.38,-144 440.38,-144 440.38,-180"/>
<text text-anchor="middle" x="278.38" y="-158.3" font-family="Times,serif" font-size="14.00">aws_s3_bucket_acl.management&#45;bucket&#45;acl</text>
</g>
<!-- [root] aws_cloudtrail.management&#45;trail (expand)&#45;&gt;[root] aws_s3_bucket_acl.management&#45;bucket&#45;acl (expand) -->
<g id="edge1" class="edge">
<title>[root] aws_cloudtrail.management&#45;trail (expand)&#45;&gt;[root] aws_s3_bucket_acl.management&#45;bucket&#45;acl (expand)</title>
<path fill="none" stroke="black" d="M313.01,-215.7C307.66,-207.56 301.18,-197.69 295.27,-188.7"/>
<polygon fill="black" stroke="black" points="298.04,-186.54 289.62,-180.1 292.19,-190.38 298.04,-186.54"/>
</g>
<!-- [root] data.aws_iam_policy_document.cloudtrail_s3_policy (expand) -->
<g id="node7" class="node">
<title>[root] data.aws_iam_policy_document.cloudtrail_s3_policy (expand)</title>
<polygon fill="none" stroke="black" points="842.38,-180 458.38,-180 458.38,-144 842.38,-144 842.38,-180"/>
<text text-anchor="middle" x="650.38" y="-158.3" font-family="Times,serif" font-size="14.00">data.aws_iam_policy_document.cloudtrail_s3_policy</text>
</g>
<!-- [root] aws_cloudtrail.management&#45;trail (expand)&#45;&gt;[root] data.aws_iam_policy_document.cloudtrail_s3_policy (expand) -->
<g id="edge2" class="edge">
<title>[root] aws_cloudtrail.management&#45;trail (expand)&#45;&gt;[root] data.aws_iam_policy_document.cloudtrail_s3_policy (expand)</title>
<path fill="none" stroke="black" d="M403.71,-215.97C451.23,-205.76 511.77,-192.76 560.98,-182.2"/>
<polygon fill="black" stroke="black" points="561.93,-185.57 570.98,-180.05 560.47,-178.73 561.93,-185.57"/>
</g>
<!-- [root] aws_s3_bucket.management&#45;bucket (expand) -->
<g id="node2" class="node">
<title>[root] aws_s3_bucket.management&#45;bucket (expand)</title>
<polygon fill="none" stroke="black" points="606.38,-108 334.38,-108 334.38,-72 606.38,-72 606.38,-108"/>
<text text-anchor="middle" x="470.38" y="-86.3" font-family="Times,serif" font-size="14.00">aws_s3_bucket.management&#45;bucket</text>
</g>
<!-- [root] provider[&quot;registry.terraform.io/hashicorp/aws&quot;] -->
<g id="node8" class="node">
<title>[root] provider[&quot;registry.terraform.io/hashicorp/aws&quot;]</title>
<polygon fill="none" stroke="black" points="325.38,-36 0.12,-18 325.38,0 650.65,-18 325.38,-36"/>
<text text-anchor="middle" x="325.38" y="-14.3" font-family="Times,serif" font-size="14.00">provider[&quot;registry.terraform.io/hashicorp/aws&quot;]</text>
</g>
<!-- [root] aws_s3_bucket.management&#45;bucket (expand)&#45;&gt;[root] provider[&quot;registry.terraform.io/hashicorp/aws&quot;] -->
<g id="edge3" class="edge">
<title>[root] aws_s3_bucket.management&#45;bucket (expand)&#45;&gt;[root] provider[&quot;registry.terraform.io/hashicorp/aws&quot;]</title>
<path fill="none" stroke="black" d="M434.91,-71.88C414.17,-61.86 387.9,-49.18 366.29,-38.75"/>
<polygon fill="black" stroke="black" points="367.56,-35.47 357.03,-34.28 364.52,-41.78 367.56,-35.47"/>
</g>
<!-- [root] var.namespace -->
<g id="node9" class="node">
<title>[root] var.namespace</title>
<polygon fill="none" stroke="black" points="784.38,-36 668.38,-36 668.38,0 790.38,0 790.38,-30 784.38,-36"/>
<polyline fill="none" stroke="black" points="784.38,-36 784.38,-30 "/>
<polyline fill="none" stroke="black" points="790.38,-30 784.38,-30 "/>
<text text-anchor="middle" x="729.38" y="-14.3" font-family="Times,serif" font-size="14.00">var.namespace</text>
</g>
<!-- [root] aws_s3_bucket.management&#45;bucket (expand)&#45;&gt;[root] var.namespace -->
<g id="edge4" class="edge">
<title>[root] aws_s3_bucket.management&#45;bucket (expand)&#45;&gt;[root] var.namespace</title>
<path fill="none" stroke="black" d="M533.41,-71.97C571.23,-61.74 619.43,-48.72 658.57,-38.14"/>
<polygon fill="black" stroke="black" points="659.57,-41.49 668.31,-35.51 657.74,-34.74 659.57,-41.49"/>
</g>
<!-- [root] aws_s3_bucket_acl.management&#45;bucket&#45;acl (expand)&#45;&gt;[root] aws_s3_bucket.management&#45;bucket (expand) -->
<g id="edge5" class="edge">
<title>[root] aws_s3_bucket_acl.management&#45;bucket&#45;acl (expand)&#45;&gt;[root] aws_s3_bucket.management&#45;bucket (expand)</title>
<path fill="none" stroke="black" d="M325.35,-143.88C352.06,-134.14 385.7,-121.87 413.86,-111.61"/>
<polygon fill="black" stroke="black" points="415.37,-114.78 423.57,-108.07 412.97,-108.21 415.37,-114.78"/>
</g>
<!-- [root] data.aws_canonical_user_id.current (expand) -->
<g id="node6" class="node">
<title>[root] data.aws_canonical_user_id.current (expand)</title>
<polygon fill="none" stroke="black" points="316.38,-108 46.38,-108 46.38,-72 316.38,-72 316.38,-108"/>
<text text-anchor="middle" x="181.38" y="-86.3" font-family="Times,serif" font-size="14.00">data.aws_canonical_user_id.current</text>
</g>
<!-- [root] aws_s3_bucket_acl.management&#45;bucket&#45;acl (expand)&#45;&gt;[root] data.aws_canonical_user_id.current (expand) -->
<g id="edge6" class="edge">
<title>[root] aws_s3_bucket_acl.management&#45;bucket&#45;acl (expand)&#45;&gt;[root] data.aws_canonical_user_id.current (expand)</title>
<path fill="none" stroke="black" d="M254.4,-143.7C242.07,-134.8 226.87,-123.82 213.53,-114.2"/>
<polygon fill="black" stroke="black" points="215.24,-111.12 205.08,-108.1 211.14,-116.79 215.24,-111.12"/>
</g>
<!-- [root] aws_s3_bucket_policy.management&#45;bucket&#45;policy (expand) -->
<g id="node4" class="node">
<title>[root] aws_s3_bucket_policy.management&#45;bucket&#45;policy (expand)</title>
<polygon fill="none" stroke="black" points="832.88,-252 467.88,-252 467.88,-216 832.88,-216 832.88,-252"/>
<text text-anchor="middle" x="650.38" y="-230.3" font-family="Times,serif" font-size="14.00">aws_s3_bucket_policy.management&#45;bucket&#45;policy</text>
</g>
<!-- [root] aws_s3_bucket_policy.management&#45;bucket&#45;policy (expand)&#45;&gt;[root] data.aws_iam_policy_document.cloudtrail_s3_policy (expand) -->
<g id="edge7" class="edge">
<title>[root] aws_s3_bucket_policy.management&#45;bucket&#45;policy (expand)&#45;&gt;[root] data.aws_iam_policy_document.cloudtrail_s3_policy (expand)</title>
<path fill="none" stroke="black" d="M650.38,-215.7C650.38,-207.98 650.38,-198.71 650.38,-190.11"/>
<polygon fill="black" stroke="black" points="653.88,-190.1 650.38,-180.1 646.88,-190.1 653.88,-190.1"/>
</g>
<!-- [root] data.aws_caller_identity.current (expand) -->
<g id="node5" class="node">
<title>[root] data.aws_caller_identity.current (expand)</title>
<polygon fill="none" stroke="black" points="869.88,-108 624.88,-108 624.88,-72 869.88,-72 869.88,-108"/>
<text text-anchor="middle" x="747.38" y="-86.3" font-family="Times,serif" font-size="14.00">data.aws_caller_identity.current</text>
</g>
<!-- [root] data.aws_caller_identity.current (expand)&#45;&gt;[root] provider[&quot;registry.terraform.io/hashicorp/aws&quot;] -->
<g id="edge8" class="edge">
<title>[root] data.aws_caller_identity.current (expand)&#45;&gt;[root] provider[&quot;registry.terraform.io/hashicorp/aws&quot;]</title>
<path fill="none" stroke="black" d="M644.69,-71.97C573.56,-60.17 479.91,-44.63 412.44,-33.44"/>
<polygon fill="black" stroke="black" points="412.71,-29.94 402.27,-31.75 411.56,-36.84 412.71,-29.94"/>
</g>
<!-- [root] data.aws_canonical_user_id.current (expand)&#45;&gt;[root] provider[&quot;registry.terraform.io/hashicorp/aws&quot;] -->
<g id="edge9" class="edge">
<title>[root] data.aws_canonical_user_id.current (expand)&#45;&gt;[root] provider[&quot;registry.terraform.io/hashicorp/aws&quot;]</title>
<path fill="none" stroke="black" d="M216.61,-71.88C237.21,-61.86 263.29,-49.18 284.76,-38.75"/>
<polygon fill="black" stroke="black" points="286.49,-41.8 293.95,-34.28 283.43,-35.5 286.49,-41.8"/>
</g>
<!-- [root] data.aws_iam_policy_document.cloudtrail_s3_policy (expand)&#45;&gt;[root] aws_s3_bucket.management&#45;bucket (expand) -->
<g id="edge10" class="edge">
<title>[root] data.aws_iam_policy_document.cloudtrail_s3_policy (expand)&#45;&gt;[root] aws_s3_bucket.management&#45;bucket (expand)</title>
<path fill="none" stroke="black" d="M606.35,-143.88C581.41,-134.18 550.04,-121.98 523.72,-111.74"/>
<polygon fill="black" stroke="black" points="524.86,-108.43 514.27,-108.07 522.32,-114.95 524.86,-108.43"/>
</g>
<!-- [root] data.aws_iam_policy_document.cloudtrail_s3_policy (expand)&#45;&gt;[root] data.aws_caller_identity.current (expand) -->
<g id="edge11" class="edge">
<title>[root] data.aws_iam_policy_document.cloudtrail_s3_policy (expand)&#45;&gt;[root] data.aws_caller_identity.current (expand)</title>
<path fill="none" stroke="black" d="M674.36,-143.7C686.69,-134.8 701.9,-123.82 715.23,-114.2"/>
<polygon fill="black" stroke="black" points="717.62,-116.79 723.68,-108.1 713.52,-111.12 717.62,-116.79"/>
</g>
<!-- [root] provider[&quot;registry.terraform.io/hashicorp/aws&quot;] (close) -->
<g id="node10" class="node">
<title>[root] provider[&quot;registry.terraform.io/hashicorp/aws&quot;] (close)</title>
<ellipse fill="none" stroke="black" cx="487.38" cy="-306" rx="291.65" ry="18"/>
<text text-anchor="middle" x="487.38" y="-302.3" font-family="Times,serif" font-size="14.00">[root] provider[&quot;registry.terraform.io/hashicorp/aws&quot;] (close)</text>
</g>
<!-- [root] provider[&quot;registry.terraform.io/hashicorp/aws&quot;] (close)&#45;&gt;[root] aws_cloudtrail.management&#45;trail (expand) -->
<g id="edge12" class="edge">
<title>[root] provider[&quot;registry.terraform.io/hashicorp/aws&quot;] (close)&#45;&gt;[root] aws_cloudtrail.management&#45;trail (expand)</title>
<path fill="none" stroke="black" d="M447.92,-288.05C425.47,-278.41 397.14,-266.25 373.28,-256"/>
<polygon fill="black" stroke="black" points="374.61,-252.76 364.04,-252.03 371.85,-259.19 374.61,-252.76"/>
</g>
<!-- [root] provider[&quot;registry.terraform.io/hashicorp/aws&quot;] (close)&#45;&gt;[root] aws_s3_bucket_policy.management&#45;bucket&#45;policy (expand) -->
<g id="edge13" class="edge">
<title>[root] provider[&quot;registry.terraform.io/hashicorp/aws&quot;] (close)&#45;&gt;[root] aws_s3_bucket_policy.management&#45;bucket&#45;policy (expand)</title>
<path fill="none" stroke="black" d="M526.84,-288.05C549.3,-278.41 577.62,-266.25 601.48,-256"/>
<polygon fill="black" stroke="black" points="602.91,-259.19 610.72,-252.03 600.15,-252.76 602.91,-259.19"/>
</g>
<!-- [root] root -->
<g id="node11" class="node">
<title>[root] root</title>
<ellipse fill="none" stroke="black" cx="487.38" cy="-378" rx="58.49" ry="18"/>
<text text-anchor="middle" x="487.38" y="-374.3" font-family="Times,serif" font-size="14.00">[root] root</text>
</g>
<!-- [root] root&#45;&gt;[root] provider[&quot;registry.terraform.io/hashicorp/aws&quot;] (close) -->
<g id="edge14" class="edge">
<title>[root] root&#45;&gt;[root] provider[&quot;registry.terraform.io/hashicorp/aws&quot;] (close)</title>
<path fill="none" stroke="black" d="M487.38,-359.7C487.38,-351.98 487.38,-342.71 487.38,-334.11"/>
<polygon fill="black" stroke="black" points="490.88,-334.1 487.38,-324.1 483.88,-334.1 490.88,-334.1"/>
</g>
</g>
</svg>
